<svg width="17" height="18" viewBox="0 0 17 18" fill="none" xmlns="http://www.w3.org/2000/svg">
<g clip-path="url(#clip0_1_806)">
<path d="M12.0417 15.5312V14.1146C12.0417 13.3631 11.7432 12.6425 11.2118 12.1111C10.6804 11.5798 9.95977 11.2813 9.20833 11.2812H3.54166C2.79021 11.2813 2.06955 11.5798 1.53819 12.1111C1.00684 12.6425 0.708328 13.3631 0.708328 14.1146V15.5312" stroke="#444444" stroke-width="1.41667" stroke-linecap="round" stroke-linejoin="round"/>
<path d="M6.37501 8.44792C7.93981 8.44792 9.20834 7.17939 9.20834 5.61458C9.20834 4.04978 7.93981 2.78125 6.37501 2.78125C4.8102 2.78125 3.54167 4.04978 3.54167 5.61458C3.54167 7.17939 4.8102 8.44792 6.37501 8.44792Z" stroke="#444444" stroke-width="1.41667" stroke-linecap="round" stroke-linejoin="round"/>
<path d="M16.2917 15.5312V14.1146C16.2912 13.4868 16.0823 12.877 15.6976 12.3808C15.313 11.8846 14.7745 11.5303 14.1667 11.3733" stroke="#444444" stroke-width="1.41667" stroke-linecap="round" stroke-linejoin="round"/>
<path d="M11.3333 2.87332C11.9428 3.02937 12.483 3.38382 12.8687 3.88079C13.2545 4.37776 13.4639 4.98899 13.4639 5.61811C13.4639 6.24723 13.2545 6.85846 12.8687 7.35543C12.483 7.85241 11.9428 8.20686 11.3333 8.3629" stroke="#444444" stroke-width="1.41667" stroke-linecap="round" stroke-linejoin="round"/>
</g>
<defs>
<clipPath id="clip0_1_806">
<rect width="17" height="17" fill="white" transform="translate(0 0.65625)"/>
</clipPath>
</defs>
</svg>
