<svg width="17" height="18" viewBox="0 0 17 18" fill="none" xmlns="http://www.w3.org/2000/svg">
<g clip-path="url(#clip0_1_799)">
<path d="M14.1667 15.5312V14.1146C14.1667 13.3631 13.8681 12.6425 13.3368 12.1111C12.8054 11.5798 12.0848 11.2813 11.3333 11.2812H5.66666C4.91521 11.2813 4.19455 11.5798 3.66319 12.1111C3.13184 12.6425 2.83333 13.3631 2.83333 14.1146V15.5312" stroke="#444444" stroke-width="1.41667" stroke-linecap="round" stroke-linejoin="round"/>
<path d="M8.50001 8.44792C10.0648 8.44792 11.3333 7.17939 11.3333 5.61458C11.3333 4.04978 10.0648 2.78125 8.50001 2.78125C6.9352 2.78125 5.66667 4.04978 5.66667 5.61458C5.66667 7.17939 6.9352 8.44792 8.50001 8.44792Z" stroke="#444444" stroke-width="1.41667" stroke-linecap="round" stroke-linejoin="round"/>
</g>
<defs>
<clipPath id="clip0_1_799">
<rect width="17" height="17" fill="white" transform="translate(0 0.65625)"/>
</clipPath>
</defs>
</svg>
