<svg width="17" height="18" viewBox="0 0 17 18" fill="none" xmlns="http://www.w3.org/2000/svg">
<g clip-path="url(#clip0_1_833)">
<path d="M8.5 1.36459V16.9479" stroke="#444444" stroke-width="1.41667" stroke-linecap="round" stroke-linejoin="round"/>
<path d="M12.0417 4.19791H6.72917C6.07165 4.19791 5.44107 4.4591 4.97613 4.92404C4.5112 5.38897 4.25 6.01956 4.25 6.67707C4.25 7.33459 4.5112 7.96517 4.97613 8.43011C5.44107 8.89504 6.07165 9.15624 6.72917 9.15624H10.2708C10.9283 9.15624 11.5589 9.41744 12.0239 9.88237C12.4888 10.3473 12.75 10.9779 12.75 11.6354C12.75 12.2929 12.4888 12.9235 12.0239 13.3884C11.5589 13.8534 10.9283 14.1146 10.2708 14.1146H4.25" stroke="#444444" stroke-width="1.41667" stroke-linecap="round" stroke-linejoin="round"/>
</g>
<defs>
<clipPath id="clip0_1_833">
<rect width="17" height="17" fill="white" transform="translate(0 0.65625)"/>
</clipPath>
</defs>
</svg>
