<svg width="21" height="21" viewBox="0 0 21 21" fill="none" xmlns="http://www.w3.org/2000/svg">
<g clip-path="url(#clip0_1_889)">
<path d="M15.1978 7.11467C15.1978 5.78859 14.671 4.51682 13.7333 3.57914C12.7956 2.64145 11.5238 2.11467 10.1978 2.11467C8.87167 2.11467 7.5999 2.64145 6.66222 3.57914C5.72454 4.51682 5.19775 5.78859 5.19775 7.11467C5.19775 12.948 2.69775 14.6147 2.69775 14.6147H17.6978C17.6978 14.6147 15.1978 12.948 15.1978 7.11467Z" stroke="black" stroke-width="1.66667" stroke-linecap="round" stroke-linejoin="round"/>
<path d="M11.6394 17.948C11.4929 18.2006 11.2826 18.4102 11.0296 18.5559C10.7766 18.7017 10.4898 18.7784 10.1978 18.7784C9.90579 18.7784 9.61893 18.7017 9.36591 18.5559C9.1129 18.4102 8.90261 18.2006 8.7561 17.948" stroke="black" stroke-width="1.66667" stroke-linecap="round" stroke-linejoin="round"/>
</g>
<defs>
<clipPath id="clip0_1_889">
<rect width="20" height="20" fill="white" transform="translate(0.197754 0.447998)"/>
</clipPath>
</defs>
</svg>
