<svg width="17" height="18" viewBox="0 0 17 18" fill="none" xmlns="http://www.w3.org/2000/svg">
<g clip-path="url(#clip0_1_849)">
<path d="M14.1667 7.03125H7.79167C7.00926 7.03125 6.375 7.66551 6.375 8.44792V14.8229C6.375 15.6053 7.00926 16.2396 7.79167 16.2396H14.1667C14.9491 16.2396 15.5833 15.6053 15.5833 14.8229V8.44792C15.5833 7.66551 14.9491 7.03125 14.1667 7.03125Z" stroke="#444444" stroke-width="1.41667" stroke-linecap="round" stroke-linejoin="round"/>
<path d="M3.54167 11.2813H2.83334C2.45762 11.2813 2.09728 11.132 1.8316 10.8663C1.56593 10.6007 1.41667 10.2403 1.41667 9.8646V3.4896C1.41667 3.11388 1.56593 2.75355 1.8316 2.48787C2.09728 2.22219 2.45762 2.07294 2.83334 2.07294H9.20834C9.58406 2.07294 9.9444 2.22219 10.2101 2.48787C10.4757 2.75355 10.625 3.11388 10.625 3.4896V4.19794" stroke="#444444" stroke-width="1.41667" stroke-linecap="round" stroke-linejoin="round"/>
</g>
<defs>
<clipPath id="clip0_1_849">
<rect width="17" height="17" fill="white" transform="translate(0 0.65625)"/>
</clipPath>
</defs>
</svg>
